<svg width="53" height="62" viewBox="0 0 53 62" fill="none" xmlns="http://www.w3.org/2000/svg">
<rect width="53" height="62" fill="#1E1E1E"/>
<g id="MacBook Air - 5" clip-path="url(#clip0_0_1)">
<rect width="1280" height="832" transform="translate(-194 -293)" fill="#13071C"/>
<path id="Pl y" d="M-59.1875 -6.23438C-52.5625 -6.23438 -47.0312 -4.07812 -42.5938 0.234375C-38.1562 4.51562 -35.9375 9.875 -35.9375 16.3125C-35.9375 22.75 -38.1562 28.125 -42.5938 32.4375C-47.0312 36.7188 -52.5625 38.8594 -59.1875 38.8594H-73.7656V60H-88.6719V-6.23438H-59.1875ZM-59.4688 24.8438C-57.125 24.8438 -55.1719 24.0312 -53.6094 22.4062C-52.0156 20.75 -51.2188 18.7188 -51.2188 16.3125C-51.2188 13.875 -52.0156 11.8438 -53.6094 10.2188C-55.1719 8.59375 -57.125 7.78125 -59.4688 7.78125H-73.7656V24.8438H-59.4688ZM-28.6719 60V-9.14062H-14.6562V60H-28.6719ZM92.8281 11.0625H108.484L85.1875 67.875C83.8125 71.4062 81.6875 74.2031 78.8125 76.2656C75.9688 78.3594 72.8438 79.4062 69.4375 79.4062C67.125 79.4062 64.7344 78.9531 62.2656 78.0469C59.7969 77.1406 57.7031 75.9219 55.9844 74.3906L61.375 63.4688C62.9688 65.0625 64.875 65.8594 67.0938 65.8594C69.4375 65.8594 71.2031 64.6406 72.3906 62.2031L73.8438 59.1562L54.25 11.0625H70.2812L81.625 42.1406L92.8281 11.0625Z" fill="white"/>
<path id="Polygon 1" d="M4 55.249L4 6.75098L46 31L4 55.249Z" stroke="url(#paint0_linear_0_1)" stroke-width="7"/>
</g>
<defs>
<linearGradient id="paint0_linear_0_1" x1="28" y1="23" x2="-11" y2="75" gradientUnits="userSpaceOnUse">
<stop stop-color="#8F00FF"/>
<stop offset="1" stop-color="#210934" stop-opacity="0.55"/>
</linearGradient>
<clipPath id="clip0_0_1">
<rect width="1280" height="832" fill="white" transform="translate(-194 -293)"/>
</clipPath>
</defs>
</svg>
